<svg id="Layer_1" data-name="Layer 1" xmlns="http://www.w3.org/2000/svg" viewBox="0 0 938.18 290.62"><defs><style>.cls-1{fill:#f8f8f8;}.cls-2,.cls-4,.cls-5{fill:none;stroke-miterlimit:10;}.cls-2{stroke:#231f20;stroke-width:10.43px;}.cls-3{fill:#ee7f38;}.cls-4,.cls-5{stroke:#000;}.cls-4{stroke-width:14.44px;}.cls-5{stroke-width:26.18px;}.cls-6{fill:#231f20;}</style></defs><ellipse class="cls-1" cx="643.32" cy="301.69" rx="27.16" ry="30.01" transform="translate(-98.52 393.07) rotate(-36.61)"/><line class="cls-2" x1="484.32" y1="85.32" x2="575.39" y2="222.13"/><path class="cls-1" d="M527.65,126.84c15-12,16.65-32.49,3.44-49s-33.66-19.66-48.7-7.66C467.51,82,466,102.41,479.13,118.8,492.33,135.34,512.61,138.84,527.65,126.84Zm-41-51.62c11.95-9.55,29.93-6.92,40.14,5.87s8.8,30.9-3.16,40.45-29.93,6.91-40.14-5.88S474.72,84.76,486.68,75.22Z" transform="translate(-45.53 -50.15)"/><path d="M535,136c21.5-17.16,24-44.81,6.65-66.61s-44.9-25.7-66.4-8.54-23.9,44.69-6.62,66.34C486.13,149.16,513.77,152.94,535,136ZM482.39,70.15c15-12,35.5-8.88,48.7,7.66s11.59,37-3.44,49-35.32,8.5-48.52-8C466,102.41,467.51,82,482.39,70.15Z" transform="translate(-45.53 -50.15)"/><ellipse class="cls-3" cx="505.12" cy="98.6" rx="26.13" ry="29.58" transform="translate(-5.93 267.9) rotate(-36.28)"/><path d="M666.75,332.36c17.14-13.69,19.18-35.72,5.3-53.1s-35.79-20.49-52.93-6.81-19,35.63-5.27,52.88C627.82,342.83,649.85,345.85,666.75,332.36Zm-41.91-52.5c12-9.57,28.29-7.09,38.82,6.1s9.24,29.52-2.75,39.09-28.15,6.77-38.67-6.41S613,289.33,624.84,279.86Z" transform="translate(-45.53 -50.15)"/><ellipse class="cls-3" cx="642.96" cy="302.54" rx="20.83" ry="23.58" transform="translate(-99.89 389.02) rotate(-36.28)"/><line class="cls-2" x1="593.48" y1="70.8" x2="530.5" y2="150.27"/><path class="cls-4" d="M674.76,123.74c10.21-8.14,11.42-21.26,3.16-31.61s-21.31-12.2-31.52-4.06-11.34,21.22-3.14,31.49C651.58,130,664.7,131.78,674.76,123.74Zm-25-31.26c7.14-5.69,16.85-4.21,23.12,3.64s5.5,17.57-1.63,23.27-16.77,4-23-3.82S642.74,98.13,649.8,92.48Z" transform="translate(-45.53 -50.15)"/><ellipse class="cls-1" cx="660.42" cy="105.87" rx="19.26" ry="20.6" transform="translate(32.73 385.04) rotate(-38.6)"/><ellipse class="cls-3" cx="660.42" cy="106.04" rx="14.3" ry="15.3" transform="translate(32.62 385.07) rotate(-38.6)"/><path class="cls-5" d="M592.77,230.45c11.68-9.32,13.07-24.34,3.61-36.18s-24.39-14-36.07-4.64-13,24.27-3.59,36C566.24,237.59,581.26,239.65,592.77,230.45Zm-28.56-35.77c8.17-6.53,19.28-4.83,26.46,4.15S597,219,588.8,225.47s-19.19,4.62-26.36-4.37S556.12,201.13,564.21,194.68Z" transform="translate(-45.53 -50.15)"/><ellipse class="cls-1" cx="576.56" cy="210.93" rx="24.21" ry="25.9" transform="translate(-51.15 355.67) rotate(-38.6)"/><ellipse class="cls-3" cx="576.56" cy="210.93" rx="18.25" ry="19.86" transform="translate(-51.15 355.67) rotate(-38.6)"/><path class="cls-6" d="M137.41,215c0,6.34-.74,11.43-2.19,15.27a22.78,22.78,0,0,1-5.45,8.76,18.51,18.51,0,0,1-5.07,3.19,36.44,36.44,0,0,1-8.14,2.38A103.59,103.59,0,0,1,104.74,246q-6.9.5-16,.5a211.64,211.64,0,0,1-23.78-1.06q-9-1.07-11.77-2.82a10.24,10.24,0,0,1-2.44-2.13,20.79,20.79,0,0,1-2.13-2.94,19.24,19.24,0,0,1-1.5-3.07,7.73,7.73,0,0,1-.56-2.62,2.56,2.56,0,0,1,.75-1.88,1.88,1.88,0,0,1,1.63-.63q6.14.63,16,1.44t23.59.82a143.15,143.15,0,0,0,17.28-.76c3.83-.5,6.38-1.2,7.63-2.12,2.42-1.76,3.63-4.84,3.63-9.27a11.16,11.16,0,0,0-.56-4,3.46,3.46,0,0,0-1.57-1.88q-1.37-.75-6.32-1.38T96.85,211q-6.76-.56-14.4-1.12t-14.39-1.25q-6.77-.69-11.77-1.44c-3.34-.5-5.5-1.09-6.51-1.76q-2.13-1.25-3.19-5.44a37.36,37.36,0,0,1-1.06-9.2,42.11,42.11,0,0,1,2.13-14.27,22.37,22.37,0,0,1,5.88-9.26,21.78,21.78,0,0,1,5.38-3.38A38,38,0,0,1,67,161.41a98,98,0,0,1,11.45-1.56q6.63-.57,15.65-.57a210.42,210.42,0,0,1,22.4.94q8.27.94,10.89,2.32a10.37,10.37,0,0,1,2.69,2.19,26.76,26.76,0,0,1,2.38,3,20.12,20.12,0,0,1,1.75,3.13,6.92,6.92,0,0,1,.69,2.7,2.12,2.12,0,0,1-.81,1.68,2.47,2.47,0,0,1-1.94.57q-2.76-.26-6.76-.57t-8.83-.62q-4.82-.31-10.26-.56t-11-.26a120,120,0,0,0-18.28,1.07q-6.51,1.06-8.26,2.44a9,9,0,0,0-2.88,3.57,14.87,14.87,0,0,0-1,6.07,15.8,15.8,0,0,0,.31,3.25,3.63,3.63,0,0,0,1.32,2.26c.83.5,2.9.93,6.19,1.31s7.2.75,11.71,1.13S93.8,195.63,99,196s10,.71,14.64,1.13,8.62.87,12.08,1.37,5.78,1.09,7,1.76q2.25,1.13,3.5,5.13A32.34,32.34,0,0,1,137.41,215Z" transform="translate(-45.53 -50.15)"/><path class="cls-6" d="M217.39,263.18a28.29,28.29,0,0,1-3,5.82,16.1,16.1,0,0,1-3.63,3.76,12.49,12.49,0,0,1-4.57,2,28.38,28.38,0,0,1-5.95.56h-2.88a2,2,0,0,1-1.94-1,2.57,2.57,0,0,1,.06-2.38l8.14-20a23.89,23.89,0,0,0,1.06-2.75,7.39,7.39,0,0,0,.44-2.13c0-.83-.54-1.25-1.62-1.25h-5.26a51.46,51.46,0,0,1-12-1.13,19.43,19.43,0,0,1-7.13-3.13,14.91,14.91,0,0,1-2.44-2.5,31.92,31.92,0,0,1-2.51-3.75,58.71,58.71,0,0,1-2.75-5.51q-1.44-3.25-3.07-7.64l-14.39-39.05c-.42-1.09-.4-1.88.06-2.38a2.85,2.85,0,0,1,2.19-.75h6.38a26.77,26.77,0,0,1,5.26.44,9.46,9.46,0,0,1,3.63,1.5,7.86,7.86,0,0,1,2.44,2.88,39,39,0,0,1,1.94,4.57l9.52,26.53a62.49,62.49,0,0,0,3.56,9.2,12.58,12.58,0,0,0,2.82,3.82,10.56,10.56,0,0,0,3.75,1.57,27.09,27.09,0,0,0,6,.56,29.76,29.76,0,0,0,5.89-.44,6.43,6.43,0,0,0,5.25-4.19c.84-1.59,2-4,3.38-7.39l12-29.29a31.92,31.92,0,0,1,2.25-4.75,10.25,10.25,0,0,1,2.63-3,8.94,8.94,0,0,1,3.63-1.56,26,26,0,0,1,5.13-.44h5.64a3.24,3.24,0,0,1,2.37.75,1.88,1.88,0,0,1,.26,2.13Z" transform="translate(-45.53 -50.15)"/><path class="cls-6" d="M305.39,178.94q12.25,0,18.77.69c4.34.46,7.22,1.1,8.64,1.94a12.55,12.55,0,0,1,4,4.19,9.68,9.68,0,0,1,1.75,4.82,2.77,2.77,0,0,1-.69,2.06,1.94,1.94,0,0,1-1.69.57q-4.76-.26-12.46-.82t-17.08-.56c-3.17,0-5.91.06-8.2.19s-4.24.29-5.82.5a18.85,18.85,0,0,0-3.76.81,10.64,10.64,0,0,0-2.12,1c-1.76,1.26-2.63,3.47-2.63,6.64a8.46,8.46,0,0,0,.25,2.19,1.62,1.62,0,0,0,.87,1.19c.5.42,2,.75,4.57,1s5.61.52,9.2.81,7.45.57,11.58.82,8,.54,11.71.87,6.86.71,9.57,1.13a17.34,17.34,0,0,1,5.32,1.38c.83.41,1.58,1.56,2.25,3.44a21.26,21.26,0,0,1,1,7.07,35.61,35.61,0,0,1-1.82,12.2,16.6,16.6,0,0,1-4.94,7.45,16.4,16.4,0,0,1-3.95,2.32,30.45,30.45,0,0,1-6.38,1.81,88.87,88.87,0,0,1-9.51,1.19q-5.58.43-13.34.44-23,0-28.28-3a8.64,8.64,0,0,1-2.13-2.07,23.79,23.79,0,0,1-1.82-2.75,15,15,0,0,1-1.25-2.82,7.9,7.9,0,0,1-.44-2.25,2.26,2.26,0,0,1,.82-1.82,2.55,2.55,0,0,1,2.19-.43l6,.62q3.63.38,7.89.69c2.84.21,5.76.37,8.76.5s5.89.19,8.64.19a109.67,109.67,0,0,0,11.39-.5,18.35,18.35,0,0,0,6.38-1.5,5.06,5.06,0,0,0,2-2.45,10,10,0,0,0,.62-3.69,8.91,8.91,0,0,0-.25-2.31,1.94,1.94,0,0,0-1-1.32c-.67-.42-2.29-.77-4.88-1.06s-5.65-.57-9.2-.82-7.34-.5-11.39-.75-7.87-.54-11.46-.87-6.75-.71-9.51-1.13-4.55-1-5.38-1.63-1.59-2-2-4.13a34.21,34.21,0,0,1-.63-6.76,32.68,32.68,0,0,1,1.75-11.2,16.12,16.12,0,0,1,8.89-10.08,31.48,31.48,0,0,1,6.64-2.13,78.51,78.51,0,0,1,9.57-1.37Q298,178.95,305.39,178.94Z" transform="translate(-45.53 -50.15)"/><path class="cls-6" d="M505.41,245.28c-3.5,0-6-.61-7.57-1.82s-2.57-3.69-3.07-7.44l-8.51-55.83a6.43,6.43,0,0,0-1.69-3.88c-.87-.83-2.44-1.25-4.69-1.25s-3.93.39-4.76,1.19a9.38,9.38,0,0,0-2.13,3.94L459.35,225.5a29.64,29.64,0,0,1-2.69,7.14,10.32,10.32,0,0,1-3.19,3.75,14.26,14.26,0,0,1-6,2.38,58.75,58.75,0,0,1-10.7.75,77.47,77.47,0,0,1-10.39-.62,16.22,16.22,0,0,1-6.89-2.26,9.94,9.94,0,0,1-3.31-4.38,51.59,51.59,0,0,1-2.44-7.13l-12.4-44.44q-1-3.51-2.25-4.57c-.83-.71-2.3-1.06-4.38-1.06s-3.74.42-4.69,1.25-1.65,2.46-2.07,4.88l-8.76,56.08c-.59,3.17-1.69,5.3-3.32,6.38a12.17,12.17,0,0,1-6.82,1.63h-7c-1.92,0-2.67-1.08-2.25-3.26l11.26-65.46a37.18,37.18,0,0,1,2.38-8.51,11.37,11.37,0,0,1,3.63-4.63,16.79,16.79,0,0,1,6.57-2.32,67.81,67.81,0,0,1,11.71-.81,77.25,77.25,0,0,1,10.26.56,15.66,15.66,0,0,1,6.26,1.94,11.49,11.49,0,0,1,3.31,4.26,47.57,47.57,0,0,1,2.95,8.38l12.26,44.31a10,10,0,0,0,2.07,4.2c.79.79,2.23,1.19,4.32,1.19s3.69-.4,4.57-1.19a9,9,0,0,0,2.19-3.95L457,175.18a35.45,35.45,0,0,1,2.94-7.76,13,13,0,0,1,3.95-4.38,17.75,17.75,0,0,1,6.82-2.07,79.92,79.92,0,0,1,11.2-.68,72.93,72.93,0,0,1,11.39.68,14.45,14.45,0,0,1,5.76,1.95,10.44,10.44,0,0,1,3.25,3.81,22.69,22.69,0,0,1,2.26,7.45l10.14,68.1a2.29,2.29,0,0,1-.63,2.25,3.34,3.34,0,0,1-2.25.75Z" transform="translate(-45.53 -50.15)"/><path class="cls-6" d="M748.62,202.09q0,13.53-3.56,22.22T736.23,237a36.14,36.14,0,0,1-6.63,3.82,45.94,45.94,0,0,1-9,2.81,99.58,99.58,0,0,1-12.08,1.75q-6.89.63-15.77.63-12.15,0-23.47-.31t-19-.69a6,6,0,0,1-2.56-.69q-1.44-.69-1.44-2.94V164.54a2.48,2.48,0,0,1,1.37-2.44,7.63,7.63,0,0,1,2.76-.81q9.25-.25,20.84-.63t22.72-.37q9.51,0,16.46.5a94.59,94.59,0,0,1,12.14,1.56,41.62,41.62,0,0,1,8.76,2.69,28.87,28.87,0,0,1,6.32,3.88q4.51,3.39,7.7,11.39T748.62,202.09Zm-19.15.63q0-16.4-6.88-22.16-3.63-3-10.83-4.13a124.8,124.8,0,0,0-18.59-1.12c-2.34,0-4.69,0-7.07.06l-6.76.12-5.88.13c-1.8,0-3.32.11-4.57.19a5.36,5.36,0,0,0-3.07.75,3.17,3.17,0,0,0-.69,2.38v47.81c0,1.42.32,2.34.94,2.76a7.27,7.27,0,0,0,3.44.75c2.34.08,5.66.15,10,.19s8.82.06,13.58.06q6.12,0,10.76-.31a70.4,70.4,0,0,0,8-.94,29.68,29.68,0,0,0,5.7-1.57,19.34,19.34,0,0,0,4.07-2.19,18.29,18.29,0,0,0,5.69-8.2Q729.47,211.74,729.47,202.72Z" transform="translate(-45.53 -50.15)"/><path class="cls-6" d="M823.23,175.18H802.51c-2,0-3.73,0-5.07.13a5.57,5.57,0,0,0-3.32.87,3.49,3.49,0,0,0-.81,2.63v14.52c0,1,.27,1.65.81,1.94a4.91,4.91,0,0,0,2.32.44H856.9a3.07,3.07,0,0,1,1.94.63,2.08,2.08,0,0,1,.81,1.75,7.17,7.17,0,0,1-.56,2.38,22.62,22.62,0,0,1-1.5,3.13,20.27,20.27,0,0,1-2.13,3,7.94,7.94,0,0,1-2.44,2,8.41,8.41,0,0,1-3.51,1.07c-1.33.12-3,.19-4.88.19H796.69q-3.37,0-3.38,2.87v14.15a2.78,2.78,0,0,0,1.13,2.57,7.35,7.35,0,0,0,3.63.68c1.58.09,4.07.13,7.45.13H819.1q15.27,0,26-.19t17.09-.44a3.37,3.37,0,0,1,1.87.57,2.73,2.73,0,0,1,1.13,1.94,9.53,9.53,0,0,1-1,3.19A24.16,24.16,0,0,1,862,239a25.61,25.61,0,0,1-2.88,3.32,8.34,8.34,0,0,1-3.07,2q-2.37.75-9.95,1t-22.72.25H810.84q-6.27,0-12.08-.06l-11-.13q-5.13-.06-9-.19a5.52,5.52,0,0,1-2.44-.75,2.94,2.94,0,0,1-1.44-2.88v-78a2.05,2.05,0,0,1,1.31-2.13,6.75,6.75,0,0,1,2.32-.5q8.26-.37,18.46-.5t21.1-.12h12.76q6,0,10.77.12c3.17.09,5.88.21,8.13.38a20.32,20.32,0,0,1,4.76.75,7.69,7.69,0,0,1,2.82,1.56,14.64,14.64,0,0,1,2.56,2.76,16.06,16.06,0,0,1,1.88,3.44,9.48,9.48,0,0,1,.75,3.5c0,1.17-.33,1.92-1,2.26a4.27,4.27,0,0,1-1.88.5q-7.12-.12-16.46-.25T823.23,175.18Z" transform="translate(-45.53 -50.15)"/><path class="cls-6" d="M890.44,162.54a1.66,1.66,0,0,1,1.88-1.88H903c2.25,0,3.82.34,4.7,1s1.31,2.22,1.31,4.63l.13,60.21a3.22,3.22,0,0,0,1.12,2.88,6.73,6.73,0,0,0,3.63.75h3.63c1.67,0,3.63,0,5.88.07s4.74.06,7.45.06h8.33q15,0,25.22-.19t16.58-.44q2.88,0,2.76,2.76a10.52,10.52,0,0,1-.94,3.19,20.74,20.74,0,0,1-2,3.5,19.28,19.28,0,0,1-2.69,3.07,8.88,8.88,0,0,1-2.88,1.88c-1.67.67-5.16,1.08-10.45,1.25s-12.92.25-22.85.25H928.94q-6.71,0-13.09-.06l-12-.13q-5.56-.06-9.45-.19a6.7,6.7,0,0,1-2.5-.62,2.67,2.67,0,0,1-1.51-2.76Z" transform="translate(-45.53 -50.15)"/></svg>